<?xml version="1.0" encoding="UTF-8"?>
<svg width="38px" height="38px" viewBox="0 0 38 38" version="1.1" xmlns="http://www.w3.org/2000/svg" xmlns:xlink="http://www.w3.org/1999/xlink">
    <title>Group 7</title>
    <defs>
        <polygon id="path-1" points="0.36 0.12 17.36 0.12 17.36 18.12 0.36 18.12"></polygon>
    </defs>
    <g id="Page-1" stroke="none" stroke-width="1" fill="none" fill-rule="evenodd">
        <g id="Meditation-Webpage---Index" transform="translate(-1246.000000, -3955.000000)">
            <g id="Group-7" transform="translate(1246.000000, 3955.000000)">
                <circle id="Oval-Copy-7" fill="#F1727F" cx="19" cy="19" r="19"></circle>
                <g id="Group-3" transform="translate(10.640000, 9.880000)">
                    <mask id="mask-2" fill="white">
                        <use xlink:href="#path-1"></use>
                    </mask>
                    <g id="Clip-2"></g>
                    <path d="M3.71826071,0.432101583 L15.268256,5.98015488 C16.5714141,6.60556008 17.36,7.57590525 17.36,8.92826339 L17.36,9.27481524 C17.36,10.6287852 16.5714141,11.5991304 15.268256,12.2229237 L3.71826071,17.7725889 C3.30724018,17.98052 2.92967482,18.1191408 2.45015088,18.1191408 C1.35409615,18.15299 0.36,17.1826448 0.36,15.9334463 C0.36,14.92764 0.908027364,14.2345363 1.79857183,13.8186741 L12.1505538,9.1361945 L1.79857183,4.45532675 C0.908027364,4.03946454 0.36,3.24158935 0.36,2.27124418 C0.36,0.986584539 1.35409615,0.085549736 2.62220598,0.121010855 C2.99817824,0.121010855 3.3757436,0.259631594 3.71826071,0.432101583" id="Fill-1" fill="#FEFEFE" mask="url(#mask-2)"></path>
                </g>
            </g>
        </g>
    </g>
</svg>