<?xml version="1.0" encoding="utf-8"?>
<!-- Generator: Adobe Illustrator 25.4.1, SVG Export Plug-In . SVG Version: 6.00 Build 0)  -->
<svg version="1.0" id="Layer_1" xmlns="http://www.w3.org/2000/svg" xmlns:xlink="http://www.w3.org/1999/xlink" x="0px" y="0px"
	 viewBox="0 0 56 58.7483" style="enable-background:new 0 0 56 58.7483;" xml:space="preserve">
<style type="text/css">
	.st0{filter:url(#Adobe_OpacityMaskFilter);}
	.st1{fill-rule:evenodd;clip-rule:evenodd;fill:#FFFFFF;}
	.st2{mask:url(#mask-2_00000119096456596717813270000009947948079484391845_);fill-rule:evenodd;clip-rule:evenodd;fill:#355C7D;}
	.st3{filter:url(#Adobe_OpacityMaskFilter_00000039119815085595810130000013154935007573796015_);}
	.st4{mask:url(#mask-4_00000124845689249971139040000014108856715430668444_);fill-rule:evenodd;clip-rule:evenodd;fill:#355C7D;}
</style>
<g id="Page-1">
	<g id="Meditation-Webpage---Index" transform="translate(-1444.000000, -3950.000000)">
		<g id="Group-7" transform="translate(1444.000000, 3950.000000)">
			<g id="Group-3" transform="translate(0.000000, 16.000000)">
				<g id="Clip-2">
				</g>
				<defs>
					<filter id="Adobe_OpacityMaskFilter" filterUnits="userSpaceOnUse" x="0" y="0.00025" width="56" height="34.00005">
						<feColorMatrix  type="matrix" values="1 0 0 0 0  0 1 0 0 0  0 0 1 0 0  0 0 0 1 0"/>
					</filter>
				</defs>
				
					<mask maskUnits="userSpaceOnUse" x="0" y="0.00025" width="56" height="34.00005" id="mask-2_00000119096456596717813270000009947948079484391845_">
					<g class="st0">
						<polygon id="path-1_00000113323576333324117620000005257100694906463908_" class="st1" points="0,0.00025 56,0.00025 
							56,34.00026 0,34.00026 						"/>
					</g>
				</mask>
				<path id="Fill-1" class="st2" d="M27.99947,0.00025c-0.45477,0-0.89155,0.20121-1.18702,0.54505L0.36909,31.46273
					c-0.55497,0.64947-0.47532,1.62241,0.17985,2.17255s1.63665,0.46864,2.19162-0.17829L27.99947,3.9251l25.25891,29.53189
					c0.55497,0.64693,1.53645,0.72843,2.19162,0.17829c0.65517-0.55014,0.73739-1.52308,0.17985-2.17255l0,0L29.18649,0.5453
					C28.89102,0.20146,28.45424,0.00025,27.99947,0.00025"/>
			</g>
			<g id="Group-6">
				<g id="Clip-5">
				</g>
				<defs>
					
						<filter id="Adobe_OpacityMaskFilter_00000057836332587524793740000007421071874121855899_" filterUnits="userSpaceOnUse" x="0" y="0" width="56" height="34.00026">
						<feColorMatrix  type="matrix" values="1 0 0 0 0  0 1 0 0 0  0 0 1 0 0  0 0 0 1 0"/>
					</filter>
				</defs>
				
					<mask maskUnits="userSpaceOnUse" x="0" y="0" width="56" height="34.00026" id="mask-4_00000124845689249971139040000014108856715430668444_">
					<g style="filter:url(#Adobe_OpacityMaskFilter_00000057836332587524793740000007421071874121855899_);">
						<polygon id="path-3_00000129193535586842139080000010815197719798327486_" class="st1" points="0,0.00025 56,0.00025 
							56,34.00026 0,34.00026 						"/>
					</g>
				</mask>
				<path id="Fill-4" class="st4" d="M26.81373,0.54504L0.36801,31.46188c-0.55497,0.64946-0.47275,1.62238,0.18242,2.17251
					c0.65517,0.55013,1.63407,0.47118,2.19161-0.17828L28.00075,3.92478L53.25946,33.4561
					c0.55497,0.64946,1.53643,0.72842,2.1916,0.17828c0.65517-0.55013,0.73482-1.52305,0.17985-2.17251l0,0L29.18519,0.54504
					C28.89229,0.20121,28.45551,0,28.00075,0C27.54341,0,27.1092,0.20121,26.81373,0.54504"/>
			</g>
		</g>
	</g>
</g>
</svg>
